<svg width="24" height="24" viewBox="0 0 24 24" fill="none" xmlns="http://www.w3.org/2000/svg">
    <g clipPath="url(#clip0)">
        <path
            d="M2.054 8.722L.959 9.817a3.12 3.12 0 0 0 0 4.5l8.821 8.909c.21.214.452.391.72.525V12.952l-8.446-4.23z"
            fill="#80e038"
        />
        <path
            d="M21.947 8.722l1.095 1.095a3.12 3.12 0 0 1 0 4.5l-8.822 8.909c-.21.214-.452.391-.72.525V12.952l8.447-4.23z"
            fill="#80e038"
        />
        <path
            d="M19.828 6.487L14.308.952a3.134 3.134 0 0 0-4.5 0L4.273 6.487l7.755 3.87 7.8-3.87z"
            fill="#80e038"
        />
    </g>
    <defs>
        <clipPath id="clip0">
            <rect width="24" height="24" />
        </clipPath>
    </defs>
</svg>
